<?xml version="1.0" encoding="UTF-8"?> <svg xmlns="http://www.w3.org/2000/svg" width="852" height="551" fill="none"><path d="M531.77 427.779l211.196 122.002" stroke="url(#paint0_linear)" stroke-width="1.5" stroke-miterlimit="10"></path><path d="M562.527 412.4l240.521 138.532" stroke="url(#paint1_linear)" stroke-width="1.5" stroke-miterlimit="10"></path><path d="M591.232 394.971l260.314 150.403" stroke="url(#paint2_linear)" stroke-width="1.5" stroke-miterlimit="10"></path><path d="M679.561 448.199l-1.468-6.769-1.468-6.768c-.078-.356-.23-.637-.441-.829-.21-.19-2.53-1.363-2.74-1.555a1.142 1.142 0 00-.79-.292l-5.949.033-5.95.032a1.686 1.686 0 00-.538.086 2.561 2.561 0 00-.567.267l.005-.002.006-.003a3.55 3.55 0 00-.452.346c-.148.13-.291.277-.428.437l-5.959 6.805-5.959 6.805a5.5 5.5 0 00-.79 1.198c-.21.433-.362.888-.44 1.332l-1.458 8.44-1.459 8.441a3.236 3.236 0 00-.021 1.088c.055.322.169.596.342.803l.062.073a2.1 2.1 0 00.066.067l4.117 3.741 4.118 3.74c.217.195 2.741 1.556 2.741 1.556.217.195.489.289.793.285.304-.003.639-.106.983-.305l6.604-3.787 6.603-3.788a3.96 3.96 0 00.986-.834c.304-.349.576-.757.793-1.196l4.115-8.463 4.114-8.462c.217-.442.364-.897.438-1.33.074-.432.074-.841-.009-1.192z" fill="#1347FF" stroke="#fff" stroke-width=".6" stroke-miterlimit="10"></path><path d="M662.401 433.955a3.614 3.614 0 00-.451.346c-.148.13-.291.277-.428.437l-5.959 6.805-5.959 6.805a5.5 5.5 0 00-.79 1.198c-.21.433-.363.888-.44 1.332l-1.459 8.44-1.458 8.441a3.231 3.231 0 00-.022 1.087c.054.322.17.596.343.803l.062.073a.836.836 0 00.066.067l4.117 3.741 4.118 3.74c.217.195.489.289.793.285.303-.003.639-.106.983-.305l6.603-3.787 6.604-3.788a3.96 3.96 0 00.986-.834c.304-.349.576-.757.793-1.196l4.114-8.463 4.115-8.462a4.97 4.97 0 00.438-1.33c.074-.431.073-.84-.01-1.192l-1.468-6.769-1.468-6.768c-.078-.356-.23-.637-.441-.829a1.137 1.137 0 00-.79-.291l-5.95.032-5.949.032a1.682 1.682 0 00-.538.086 2.522 2.522 0 00-.567.268l.005-.003.007-.001z" fill="#1347FF" stroke="#fff" stroke-width=".6" stroke-miterlimit="10"></path><path d="M662.512 439.075c-.866.413-.678 1.788-.603 2.335.066.473.09.976.071 1.501a1.82 1.82 0 01-.234.573l-.016.369c-.433.292-.863.617-1.286.975-1.782 1.501-3.404 3.533-4.656 5.838l-.257-.07c-.142.132-.293.2-.423.192a3.229 3.229 0 01-.959-.483c-.384-.282-1.127-.845-1.688.303-.547 1.117.428 1.237.913 1.281.378.034.735.123 1.067.28a.651.651 0 01.142.408l.234.121c-1.258 2.973-1.775 5.996-1.452 8.489l-.3.274a2.445 2.445 0 01-.305.542 10.64 10.64 0 01-1.277.983c-.574.374-1.625.986-1.506 1.942.02.169.09.297.197.366.414.268 1.128-.524 1.577-.997.401-.421.817-.807 1.243-1.146.148-.074.289-.096.409-.062l.32-.248c.695 2.172 2.156 3.513 4.107 3.768l-.131.4c.06.114.082.268.064.442a16.137 16.137 0 01-.644 1.762c-.326.754-.959 2.111-.211 2.196.131.016.282-.033.432-.138.582-.407.768-1.432.885-2.053.189-.666.292-1.323.55-1.84.085-.144.192-.267.306-.354l.16-.44c2.115-.243 4.454-1.578 6.573-3.749l.142.243c.146-.058.276-.036.364.053.201.341.363.726.487 1.148.165.561.415 1.617 1.22.793a1.72 1.72 0 00.346-.529c.325-.779-.164-1.244-.459-1.536a4.638 4.638 0 01-.642-.98.965.965 0 01.073-.551 1.853 1.853 0 01-.119-.275c1.946-2.499 3.401-5.52 4.089-8.489l.304-.11c.109-.181.252-.326.399-.404a6.173 6.173 0 011.243-.28c.529-.069 1.473-.069 1.739-1.207a1.007 1.007 0 00-.002-.533c-.189-.562-.991-.111-1.474.154a6.37 6.37 0 01-1.277.481.403.403 0 01-.308-.191l-.289.063c.308-2.853-.22-5.268-1.482-6.789l.253-.422c-.011-.169.038-.37.132-.558.328-.525.684-1.026 1.059-1.494.498-.623 1.424-1.697.977-2.299a.37.37 0 00-.373-.142c-.557.089-1.057 1.11-1.37 1.734a16.507 16.507 0 01-.934 1.585c-.137.145-.286.25-.431.303l-.271.385c-1.561-1.054-3.665-1.059-5.919-.008 0-.128-.013-.311-.016-.37-.121-.031-.206-.134-.233-.289-.015-.506.012-1.037.081-1.585.098-.78.283-2.087-.611-1.661zm-.893 7.096l-.213 4.575-.017.009c-.01.281-.147.594-.355.846-.208.253-.455.355-.642.299l-3.063-.83c.975-1.702 2.198-3.197 3.532-4.319.251-.207.503-.401.756-.58h.002zm1.784-1.022c1.61-.685 3.108-.682 4.267.005l-3.035 4.312c-.187.286-.443.468-.661.471-.217.002-.356-.178-.359-.462l-.212-4.326zm-7.186 8.234l2.802 1.373v.019c.174.082.25.32.199.618a1.48 1.48 0 01-.446.81v.013l-3.596 3.295c-.177-1.829.189-3.985 1.042-6.13l-.001.002zm12.569-7.208c.851 1.162 1.227 2.883 1.071 4.901l-3.6.828v-.017c-.225.056-.396-.058-.447-.299-.05-.24.025-.562.2-.846l2.78-4.561-.004-.006zm-6.849 7.14l1.147-.657.7.659-.254 1.472-1.03 1.181-1.032.001-.243-1.186.712-1.47zm3.672 1.511a.768.768 0 01.145-.082l3.707-1.381c-.535 2.143-1.59 4.316-2.967 6.155l-1.433-3.314c-.137-.304.014-.832.335-1.178.067-.072.137-.132.209-.178l.004-.022zm-6.227 3.591c.21-.117.403-.099.517.044.115.144.133.396.051.673v.017l-1.424 4.919c-1.364-.26-2.399-1.215-2.949-2.716l3.675-2.851a.707.707 0 01.125-.07l.005-.016zm3.106.003c.238-.146.461-.121.574.064l.014-.008 1.811 2.857-.723.67c-1.333 1.127-2.724 1.84-4.019 2.058l1.818-4.94c.11-.293.313-.55.534-.682l-.009-.019z" fill="#fff"></path><path d="M724.264 466.805c-.535-.338-2.494-1.389-2.91-1.652-1.29-.816-2.954-.956-4.816-.312-.612-2.249-1.793-3.872-3.37-4.76-.481-.271-2.415-1.374-2.909-1.653-2.19-1.232-5.143-1.045-8.392.858-3.249 1.904-6.201 5.177-8.392 8.977-2.191 3.8-3.618 8.126-3.817 12.138a10.575 10.575 0 00-.636.344c-2.594 1.52-4.943 4.178-6.644 7.245-1.701 3.069-2.753 6.545-2.753 9.704 0 3.16 1.052 5.405 2.752 6.48.535.338 2.494 1.389 2.91 1.652 1.7 1.075 4.049.979 6.644-.54l12.843-7.526 12.843-7.527c2.594-1.521 4.943-4.178 6.644-7.245 1.7-3.067 2.752-6.544 2.752-9.702.001-3.162-1.05-5.407-2.749-6.481z" fill="#1347FF" stroke="#fff" stroke-width=".6" stroke-miterlimit="10"></path><path d="M717.617 467.347a8.788 8.788 0 00-.32.194c-.105.067-.211.136-.317.206-.199-3.779-1.627-6.433-3.817-7.666-2.19-1.233-5.142-1.045-8.392.858-3.248 1.904-6.201 5.176-8.392 8.976-2.191 3.8-3.618 8.127-3.817 12.139a11.901 11.901 0 00-.635.344c-2.595 1.52-4.944 4.178-6.644 7.245-1.701 3.067-2.753 6.543-2.753 9.702 0 3.16 1.052 5.405 2.753 6.48 1.7 1.074 4.049.979 6.644-.541l12.843-7.525 12.844-7.526c2.594-1.52 4.943-4.178 6.644-7.245 1.7-3.067 2.752-6.543 2.752-9.702.002-3.162-1.05-5.407-2.749-6.482-1.7-1.074-4.05-.978-6.644.543z" fill="#1347FF" stroke="#fff" stroke-width=".6"></path><path d="M712.701 479.767a4.74 4.74 0 01-1.032.449c-.334.098-.595.144-.769.124-.107-.011-.181-.049-.207-.106a.478.478 0 01-.041-.201v-.407c0-.169.054-.278.154-.336a.389.389 0 01.12-.046c.041-.007.101-.009.167-.015.228-.011.476-.058.735-.143.268-.089.529-.207.797-.361.422-.243.749-.519.978-.826.228-.306.348-.632.348-.96 0-.224-.06-.372-.18-.456-.12-.084-.348-.089-.676-.028l-.971.198c-.49.097-.85.033-1.071-.2-.22-.225-.334-.552-.334-.968 0-.336.06-.666.18-.991.12-.326.281-.642.482-.933a4.618 4.618 0 011.989-1.664c.154-.065.294-.113.435-.162.134-.037.261-.07.381-.092.12-.02.215-.026.281-.017.093.011.161.034.201.083.041.042.06.118.06.23v.376c0 .169-.054.288-.154.345a.532.532 0 01-.254.049c-.381.011-.81.154-1.285.426-.381.219-.682.464-.89.736a1.438 1.438 0 00-.315.893c0 .225.067.378.201.453.133.076.381.084.735.017l.951-.187c.482-.092.83-.038 1.037.171.207.209.308.526.308.943 0 .344-.06.69-.174 1.027-.12.342-.281.673-.488.984a4.782 4.782 0 01-.743.875c-.3.287-.615.524-.956.72zm-8.601 4.728c-.12.069-.201.092-.254.065-.054-.017-.1-.102-.141-.231l-1.573-5.275a1.2 1.2 0 01-.06-.285c0-.127.054-.23.16-.291l.656-.377c.128-.074.215-.1.262-.07.054.018.093.107.133.236l1.124 4.648 1.045-5.895c.033-.178.073-.306.127-.385a.832.832 0 01.268-.235l.536-.307c.127-.074.214-.101.267-.074.054.018.101.102.127.239l1.059 4.749 1.157-6.022c.041-.183.087-.313.134-.389a.783.783 0 01.261-.231l.623-.358c.107-.061.166-.031.166.103a1.693 1.693 0 01-.06.361l-1.613 7.109c-.041.183-.087.314-.142.393a.777.777 0 01-.253.227l-.575.331c-.128.073-.215.1-.267.073-.054-.025-.101-.102-.128-.246l-1.037-4.563-1.031 5.743a1.152 1.152 0 01-.128.392.745.745 0 01-.267.235l-.576.33zm-5.373 2.225a3.555 3.555 0 001.325-1.417c.107-.213.188-.427.228-.642a3.93 3.93 0 00.068-.735v-.335a5.52 5.52 0 00-1.245.53c-.449.258-.776.551-.996.892a1.992 1.992 0 00-.328 1.108c0 .377.081.61.248.706.158.109.392.07.7-.107zm2.716-2.776c0 .296.027.52.074.67.054.144.12.298.214.452a.265.265 0 01.047.158c0 .08-.04.183-.128.313l-.421.578a.606.606 0 01-.174.172.203.203 0 01-.201.005 1.138 1.138 0 01-.242-.238 3.352 3.352 0 01-.207-.353c-.523 1.036-1.179 1.781-1.968 2.234-.563.324-1.011.389-1.339.194-.328-.195-.496-.61-.496-1.25 0-.68.201-1.347.609-1.998a4.6 4.6 0 011.64-1.566c.228-.131.462-.243.71-.344.247-.103.501-.184.77-.267v-.585c0-.608-.107-.97-.316-1.097-.214-.124-.575-.037-1.091.259a4.73 4.73 0 00-.724.52c-.247.215-.488.44-.723.689a4.263 4.263 0 01-.235.239.641.641 0 01-.103.082c-.094.054-.142.001-.142-.166v-.393c0-.127.014-.231.047-.306.033-.074.093-.165.188-.277.234-.278.514-.559.843-.845a6.239 6.239 0 011.045-.753c.797-.458 1.38-.578 1.753-.36.368.221.555.767.555 1.648v2.592l.014-.008v.001h.001zm12.522-1.02c-2.202 3.21-5.402 6.081-8.152 7.661-3.854 2.216-7.329 2.51-9.952 1.187-.207-.105-.019-.516.229-.482 2.836.336 6.337-.485 9.957-2.566 2.444-1.405 5.128-3.555 7.597-6.221.367-.412.681-.105.321.421z" fill="#fff"></path><path d="M714.888 481.149c-.281-.271-1.861.861-2.577 1.377-.214.156-.247-.049-.054-.329 1.258-1.779 3.326-2.664 3.568-2.451.241.222-.067 2.869-1.244 4.729-.181.288-.355.291-.275.005.267-.944.863-3.069.582-3.331z" fill="#fff"></path><path d="M635.034 403.724l-.813-2.518-2.146-6.675-.817-2.54-.164-.508-3.922-2.29-.526.305-2.634 1.525-9.312 5.39-.262.153-9.575 5.542-2.634 1.525-.526.305-.163.697-.817 3.485-2.96 12.624c-.589 2.515-.879 4.937-.862 7.197.017 2.186.321 4.182.902 5.934.574 1.728 1.406 3.181 2.472 4.319a8.678 8.678 0 002.116 1.661c.549.305 3.131 1.833 3.794 2.217a8.463 8.463 0 001.874.8l.49.143 7.255 2.118 2.128.622.426.124.425-.617 2.128-3.085 7.747-11.229a43.62 43.62 0 003.979-7.108 40.123 40.123 0 002.438-7.268c.547-2.39.823-4.703.82-6.875-.003-2.203-.292-4.212-.861-5.973z" fill="#1347FF" stroke="#fff" stroke-width=".6" stroke-miterlimit="10"></path><path d="M635.035 403.728l-.813-2.518-2.147-6.675-.817-2.54-.163-.508-.527.305-2.633 1.525-9.312 5.391-.262.152-9.575 5.543-2.633 1.524-.527.305-.163.697-.817 3.485-2.96 12.624c-.589 2.516-.88 4.937-.862 7.197.017 2.186.32 4.182.902 5.934.574 1.728 1.406 3.181 2.472 4.319a8.495 8.495 0 003.861 2.388l.491.143 7.255 2.119 2.127.621.426.124.426-.617 2.127-3.085 7.747-11.229a43.626 43.626 0 003.98-7.108 40.196 40.196 0 002.437-7.268c.547-2.39.823-4.703.82-6.875-.002-2.202-.292-4.212-.86-5.973z" fill="#1347FF" stroke="#fff" stroke-width=".6" stroke-miterlimit="10"></path><path d="M630.897 407.753l-.002.003-2.959-9.2-9.574 5.543.001.003 2.959 9.196 9.572-5.541-7.745 11.225 2.959 9.2-7.746-2.26-7.747 11.227-.001.001 2.958-12.626-7.741-2.258 9.571-5.541 2.96-12.624v-.002l-9.575 5.543-2.959 12.624c-1.809 7.721.291 13.575 4.786 14.886l7.746 2.262 7.748-11.232c4.74-6.867 6.51-15.095 4.789-20.429z" fill="#fff"></path><path d="M742.965 497.657c0 2.037 1.376 4.498 3.092 5.483l8.68 5.007 4.842 9.014 4.841-3.412 8.681 5.007c1.699.985 3.092.119 3.092-1.918v-28.517c0-2.037-1.376-4.498-3.092-5.483l-27.044-15.599c-1.699-.985-3.092-.119-3.092 1.918v28.5z" fill="#1BE99A"></path><circle r="4.086" transform="matrix(-1 0 0 1 758.884 524.164)" fill="#1BE99A"></circle><path fill-rule="evenodd" clip-rule="evenodd" d="M759.58 482.961c-4.901-2.833-8.875-.356-8.875 5.531 0 5.888 3.974 12.957 8.875 15.789 4.902 2.833 8.875.356 8.875-5.531-.001-5.888-3.974-12.957-8.875-15.789zm6.043 11.438l-6.772 4.221c-.211.131-.497.109-.795-.064-.297-.172-.583-.481-.794-.855l-3.446-6.13c-.439-.781-.439-1.636 0-1.909.439-.274 1.151.137 1.589.918l2.651 4.716 5.977-3.725c.439-.274 1.151.137 1.59.918.438.781.438 1.636 0 1.91z" fill="#fff"></path><path d="M-47.348 210.485l188.432-109.743c14.413-8.393 14.416-29.213.006-37.61L-88.066-70.427" stroke="url(#paint3_linear)" stroke-width="1.5"></path><path d="M84.173 124.225L40.269 99.033v49.353l43.904 25.192v-49.353z" fill="#061431"></path><path d="M485.854 257.841V70.204c0-23.511-11.58-45.521-30.963-58.814l-52.899-40.68" stroke="url(#paint4_linear)" stroke-width="1.5" stroke-miterlimit="10"></path><path d="M-75.764 345.815l226.058-130.629c22.383-13.05 50.037-13.109 72.459-.137l210.332 123.187" stroke="url(#paint5_linear)" stroke-width="1.5" stroke-miterlimit="10"></path><path d="M168.186-19.135l70.171 40.385c18.88 12.895 30.154 34.26 30.154 57.07v82.18c0 15.945 11.415 33.175 25.27 41.147l143.512 83.599" stroke="url(#paint6_linear)" stroke-width="1.5" stroke-miterlimit="10"></path><path d="M328.176-7.596v136.348c0 11.936 6.334 22.965 16.64 28.942l156.219 91.051" stroke="url(#paint7_linear)" stroke-width="1.5" stroke-miterlimit="10"></path><path d="M453.216 278.15l-85.208-50.566c-13.959-8.169-26.82-7.369-40.453 1.306l-56.593 32.671c-8.969 5.711-20.704-.723-20.704-11.349v-35.426a43.043 43.043 0 0122.91-38.062c24.121-12.759 58.544-34.64 85.233-49.622 21.879-12.29 22.06-43.682.325-56.225l-84.51-49.344c-15.116-8.73-16.002-30.236-1.627-40.158l36.876-21.379" stroke="url(#paint8_linear)" stroke-width="1.5" stroke-miterlimit="10"></path><path d="M-33.728 437.061l194.315-113.368a30.002 30.002 0 0014.882-25.913V147.269c0-19.943 11.586-38.096 29.671-46.511L379.875-1.694C394.846-10.47 413.71.333 413.71 17.69v129.46c0 8.071-.956 19.884-9.796 24.937-8.839 5.054-11.284 6.271-24.177 13.886-12.892 7.614-10.987 27.633 5.385 36.876 29.558 16.687 69.064 39.011 81.582 46.085" stroke="url(#paint9_linear)" stroke-width="1.5" stroke-miterlimit="10"></path><path d="M-36.805 380.389L210.69 523.851a43 43 0 0043.527-.233l65.746-39.058c10.383-6.056 10.383-21.181 0-27.237l-98.097-57.444c-11.119-6.493-11.119-22.695 0-29.173l205.7-118.614a39.238 39.238 0 0139.558 0l14.111 8.518" stroke="url(#paint10_linear)" stroke-width="1.5" stroke-miterlimit="10"></path><path d="M146.711-116.68V-.288a38.692 38.692 0 01-19.388 33.533L-45.006 132.45" stroke="url(#paint11_linear)" stroke-width="1.5"></path><path d="M152.626 449.321c0 2.037-1.376 4.498-3.092 5.483l-8.68 5.007-4.842 9.014-4.841-3.412-8.681 5.007c-1.699.985-3.092.119-3.092-1.918v-28.517c0-2.037 1.376-4.498 3.092-5.483l27.044-15.599c1.699-.985 3.092-.119 3.092 1.918v28.5z" fill="#FC1683"></path><path fill-rule="evenodd" clip-rule="evenodd" d="M136.014 434.45c-.306.17-.595.527-.782.985l-8.714 23.136c-.17.458-.153.849 0 1.069.153.221.424.289.781.085l17.429-10.049c.34-.203.629-.577.782-.984.153-.407.17-.815 0-1.07l-8.715-13.07c-.187-.271-.476-.271-.781-.102z" fill="#fff"></path><path fill-rule="evenodd" clip-rule="evenodd" d="M136.015 448.586c-.153.085-.289.102-.391.051-.102-.051-.17-.17-.187-.357l-.272-4.091-.271-4.09a1.126 1.126 0 01.153-.611c.101-.204.254-.374.424-.476l.544-.322.543-.323c.17-.102.323-.102.425-.017.102.085.17.238.153.442l-.272 4.413-.272 4.413a1.36 1.36 0 01-.186.56 1.13 1.13 0 01-.391.408z" fill="#FC1683"></path><path d="M135.426 452.356c-.356-.189-.38-.839-.053-1.451.327-.612.881-.955 1.236-.765.356.19.38.84.053 1.452s-.881.954-1.236.764z" fill="#FC1683"></path><circle cx="136.013" cy="479.146" r="4.086" fill="#FC1683"></circle><circle cx="266.661" cy="65.929" r="4.101" fill="#FC1683"></circle><circle cx="434.847" cy="209.322" r="4.101" fill="#FC1683"></circle><circle cx="153.847" cy="78.322" r="4.101" fill="#FC1683"></circle><circle cx="175.417" cy="283.277" r="4.101" fill="#FC1683"></circle><circle cx="403.017" cy="265.849" r="4.101" fill="#FC1683"></circle><circle cx="250.259" cy="229.964" r="4.101" fill="#FC1683"></circle><path d="M34.303 239.19c0 2.037 1.376 4.499 3.092 5.483l8.68 5.008 4.842 9.013 4.841-3.412 8.68 5.008c1.7.984 3.092.118 3.092-1.918v-28.518c0-2.037-1.376-4.498-3.091-5.482l-27.044-15.6c-1.7-.985-3.092-.119-3.092 1.918v28.5z" fill="#FC1683"></path><path fill-rule="evenodd" clip-rule="evenodd" d="M50.916 224.319c.306.17.595.526.782.984l8.715 23.137c.17.458.152.848 0 1.069-.153.221-.425.289-.782.085l-17.43-10.049c-.339-.204-.628-.577-.78-.984-.154-.408-.17-.815 0-1.07l8.714-13.07c.187-.272.476-.272.782-.102z" fill="#fff"></path><path fill-rule="evenodd" clip-rule="evenodd" d="M50.92 238.461c.152.085.288.102.39.051.102-.051.17-.17.187-.357l.272-4.091.271-4.09a1.127 1.127 0 00-.152-.611 1.164 1.164 0 00-.425-.476l-.544-.322-.543-.323c-.17-.102-.323-.102-.425-.017-.102.085-.17.238-.153.442l.272 4.413.272 4.413c.017.187.085.391.187.56.101.17.237.323.39.408z" fill="#FC1683"></path><path d="M51.509 242.231c.356-.19.38-.84.053-1.452-.328-.612-.881-.954-1.237-.764-.356.19-.38.84-.052 1.452.327.612.88.954 1.236.764z" fill="#FC1683"></path><circle r="4.086" transform="matrix(-1 0 0 1 50.918 269.021)" fill="#FC1683"></circle><path d="M222.96 305.25l-16.634 9.605v-5.68l16.634-9.604v5.679zm19.751-.724l-36.385 21.002v-5.677l36.385-21.011v5.686zM408.634 31.41L392 41.016v-5.68l16.634-9.604v5.68zm19.75-.724L392 51.688v-5.676L428.384 25v5.686z" fill="#1BE99A"></path><path d="M342.442 389.912l-20.279-11.709v6.924l20.279 11.709v-6.924zm24.078.881l-44.358-25.605v6.921l44.358 25.616v-6.932z" fill="#FC1683"></path><path d="M185.964 39.606l-12.817-7.4v4.377l12.817 7.4v-4.377zm15.216.558l-28.033-16.182v4.374l28.033 16.189v-4.38z" fill="#1BE99A"></path><path d="M292.291 162.419l-36.908-21.648v44.993l36.908 21.647v-44.992zM117.451 29.532L80.543 7.885v50.51l36.908 21.646v-50.51zm316.321 75.937l-43.059-25.186v56.833l43.059 25.185v-56.832zM89.298 336.268l43.059-25.311v52.606l-43.059 25.311v-52.606zm58.815-151.297L203.475 153v66.45l-55.362 31.971v-66.45zM36.51 418.256l33.334-19.25v40.011l-33.335 19.25v-40.011zM307.671 58.062l42.034-24.644V84.64l-42.034 24.645V58.062zM217.963 82.83l-46.135-26.642v55.375l46.135 26.642V82.83z" fill="#061431"></path><path d="M284.023 166.408v5.666l-5.481-3.142c-.339-.208-1.738-.989-2.804-.407-.521.284-1.141 1.005-1.141 2.823v6.292c-.018.427-.01 2.071.965 3.899.49.917 1.401 2.197 2.962 3.093l4.384 2.511.015.008c.291.168 1.738.933 2.81.291.492-.296 1.081-1.007 1.081-2.717v-16.717l-2.791-1.6zm.003 16.718c0 .324 0 1.308-1.097.695l-4.402-2.524c-.299-.172-.698-.453-.9-.824-.21-.384-.244-.886-.242-1.056l.006-6.467c0-.495.083-.796.251-.891.221-.132.628.049.784.136.002.003.002.003.005.003l5.595 3.209v7.719zm-11.771-16.448c-.49-.919-1.403-2.199-2.967-3.098l-4.391-2.516c-.255-.15-1.736-.956-2.83-.302-.496.296-1.085 1.01-1.085 2.723v16.756l2.791 1.599v-5.681l5.497 3.149c.342.209 1.74.992 2.809.407.521-.283 1.144-1.007 1.144-2.828v-6.304c.018-.428.01-2.074-.968-3.905zm-1.823 8.613c0 .497-.086.798-.252.896-.228.131-.648-.062-.793-.142l-5.611-3.219v-7.739c0-.325 0-1.314 1.102-.701l4.413 2.529c.3.173.7.456.905.829.21.387.246.892.241 1.064l-.005 6.483zm-79.746-75.79c0-2.33 1.566-3.313 3.508-2.187 1.934 1.118 3.507 3.913 3.507 6.246v10.54c0 2.329-1.566 3.313-3.507 2.187-1.935-1.118-3.508-3.913-3.508-6.246v-10.54zm-1.75-1.015c0 2.329-1.566 3.313-3.507 2.187-1.934-1.118-3.507-3.913-3.507-6.246 0-2.33 1.566-3.314 3.507-2.188l3.507 2.031v4.216zm5.259-11.749c1.935 1.122 3.507 3.913 3.507 6.246 0 2.33-1.565 3.313-3.507 2.188l-8.785-5.082c-1.942-1.122-3.508-3.917-3.508-6.246 0-2.33 1.566-3.314 3.508-2.188l8.785 5.085v-.003zm0-2.141c-1.934-1.12-3.507-3.914-3.507-6.247 0-2.33 1.566-3.313 3.507-2.187 1.935 1.122 3.507 3.913 3.507 6.246v4.219l-3.507-2.031zm12.291 13.475c0 2.33-1.566 3.313-3.507 2.188-1.934-1.119-3.507-3.914-3.507-6.247V83.437c0-2.33 1.566-3.313 3.507-2.188 1.934 1.119 3.507 3.914 3.507 6.247V98.07zm1.754 1.012c0-2.33 1.566-3.313 3.507-2.187 1.934 1.118 3.507 3.913 3.507 6.246 0 2.33-1.566 3.313-3.507 2.188l-3.507-2.032v-4.215zm-5.261 11.757c-1.934-1.119-3.507-3.913-3.507-6.246 0-2.33 1.566-3.314 3.507-2.188l8.786 5.085c1.934 1.119 3.507 3.914 3.507 6.247 0 2.329-1.566 3.313-3.507 2.187l-8.786-5.085zm0 2.109c1.934 1.119 3.507 3.914 3.507 6.247 0 2.329-1.566 3.313-3.507 2.187-1.934-1.118-3.507-3.913-3.507-6.246v-4.219l3.507 2.031z" fill="#fff"></path><path fill-rule="evenodd" clip-rule="evenodd" d="M122.94 350.247l-3.247-.7-2.71 7.063-3.152.72-2.776 6.75.141 1.53 15.089-12.163-.877-10.907-2.468 7.707zm-14.072 3.282l2.423-1.814c.392-.017.664-.093 1.132-.222.73-.195 1.578-.466 2.831-1.963.292-.344.9-1.372 1.146-1.9l9.918-7.963 1.011 14.242-16.991 13.615-1.47-13.995zm18.425-16.086l-.979.797-1.882-22.439-32.047 23.186 3.947 36.502 3.751-2.846c-.298-.344-.766-.7-1.561-1.034-1.103-.466-.714-2.585-.062-4.155.86-2.515 5.306-7.668 5.054-10.742-.092-1.117-.243-2.551-1.143-3.074-.033.453.026.837.026.837s-.369-.354-.553-1.025c-.183-.192-.324-.205-.52-.489-.138.539-.121 1.064-.121 1.064s-.301-.687-.351-1.385c-.18.43-.222 1.074-.222 1.074s-.393-1.13-.301-1.917c-.18-.532-.707-1.487-.56-4.452.979.258 3.132-1.193 3.97-3.179.279-.658.468-2.122-.14-4.436-.39-1.484-1.359-3.467-1.735-4.214l-.046.066c.2.665.609 2.056.766 2.757.475 2.122.602 2.885.38 4.121-.19 1.075-.645 1.967-1.804 3.345-1.155 1.378-2.69.555-2.785.519-1.123-.43-1.994-1.689-2.089-2.492-.101-.882.449-1.765.724-2.694-.396.367-.835.866-.835.866s.527-.965 1.175-1.913c.269-.374.426-.602.71-1.052-.409.232-.743.44-.743.44s.684-.846 1.392-1.583c-.518.274-1.015.585-1.015.585s1.525-1.715 2.73-3.024c.828-.896 1.636-1.246 2.091-.714.596.694 1.224.895 2.553.472.815-.915 1.064-1.282 2.089-2.217.903-1.729 1.61-2.297 1.61-2.297s-.35.594-.445 1.262c.51-.787 1.073-1.52 1.073-1.52s-.216.453-.419 1.084l.046.056c.596-.78 1.3-1.534 1.3-1.534s-.2.423-.436.959c.452-.268 1.362-.77 1.719-.929 2.091-1.163 2.527-4.178 3.329-4.991 1.004-1.021 1.453-1.546 3.165-.505 1.469.892 2.618 3.354 2.049 4.386-.478.859-1.421.601-2.465-.367-.553-.513-.969-1.26-1.165-2.4-.164-.962-.809-1.203-.809-1.203s.373.79.373 1.676c0 .486.05 2.267.691 2.908-.062.185-.092.79-.164.942-.746-.657-2.346-.502-2.608-.581.883.36 2.916 1.193 3.695 2.67.74 1.395.305 3.325.678 3.54.104.063 1.587 1.435 1.872 2.39.497 1.669.029 3.999-.622 5.652l-1.817 1.401c-.265.066-.445.126-.684.096.131-.357.393-1.213.396-1.359l-.101-.158c-.566 1.299-1.512 2.796-2.301 3.794-1.031 1.309-2.216 1.891-2.992 2.053-2.193.459-4.268-.126-4.769-.308 0 0-.016.387.079.417.553.433 1.82 1.061 3.044 1.299l-2.612 1.87 1.234 10.921c-.547.413-.632.509-1.231.961-.527-1.95-1.538-2.839-2.641-3.054-.972-.191-2.318.42-3.601 1.481l-.082.165c.894-.634 1.948-1.09 3.031-.892 1.064.195 1.922 1.798 2.236 2.882.406 1.385.684 2.952-.406 5.421-.772 1.755-3.031 3.794-4.857 3.298.487.665 1.145 1.058 2.032.688 1.316-.552 2.566-1.557 3.427-3.127.733-1.342 1.123-3.484 1.021-5.437l1.162-.883.419 3.372 19.24-14.024-1.558-17.63zm-11.708-2.991c-.052.178-.138.327-.013.737l.006.023.02.05.052.112c.23.433.478.82.897.846.108-.086.22-.165.337-.241.393-.251.642-.321.799-.307.013-.103.016-.245.01-.443-.03-.698.118-2.003-1.021-1.98-.429.01-1.031.433-1.231.853a.319.319 0 01.095-.03c.311-.053.105.195.049.38zm3.188 4.825c-.151-.013-.844.433-1.335.79-.933.678-1.941 1.656-2.161 1.993-.402.609-.219 1.157.079 1.256.831.268 1.561.347 2.33-.224.472-.351.887-1.498 1.185-2.492.197-.688.197-1.299-.098-1.323zm-8.258-.981c.262-.456-1.309.063-2.53 1.785-.9 1.269-.93 2.882-.066 3.282.085.039.157.062.223.076.252-.291.54-.602.867-.926a12.93 12.93 0 011.404-1.209c.184-.354.396-.913.341-1.67-.076-1.027-.743-.469-.239-1.338z" fill="#fff"></path><path d="M328.19 50.996c-1.274.613-.998 2.656-.886 3.469.096.702.131 1.45.103 2.23-.06.286-.179.583-.344.851l-.024.548c-.637.434-1.27.917-1.893 1.449-2.624 2.229-5.011 5.248-6.856 8.671l-.378-.103c-.209.195-.431.296-.623.284a4.734 4.734 0 01-1.412-.717c-.565-.419-1.658-1.255-2.485.45-.804 1.66.63 1.838 1.344 1.903a4.57 4.57 0 011.571.416c.125.143.198.352.21.607l.344.18c-1.853 4.415-2.613 8.906-2.138 12.61l-.441.406a3.598 3.598 0 01-.45.806 15.67 15.67 0 01-1.88 1.46c-.844.556-2.393 1.465-2.218 2.885.031.252.133.442.291.544.609.398 1.66-.78 2.322-1.481a18.414 18.414 0 011.83-1.703c.218-.11.425-.142.602-.092l.472-.368c1.023 3.227 3.174 5.219 6.046 5.597l-.192.594c.087.17.121.398.094.657a24.1 24.1 0 01-.949 2.618c-.48 1.12-1.412 3.136-.31 3.262.192.023.415-.05.635-.206.858-.604 1.131-2.127 1.303-3.05.279-.988.43-1.964.811-2.733.125-.213.282-.396.45-.525l.236-.653c3.114-.362 6.557-2.345 9.677-5.57l.21.361c.214-.086.406-.054.535.079.296.507.535 1.079.718 1.705.243.832.61 2.402 1.795 1.178a2.52 2.52 0 00.51-.786c.479-1.157-.242-1.848-.675-2.282a6.824 6.824 0 01-.945-1.455c-.051-.23-.012-.525.107-.82a2.6 2.6 0 01-.175-.408c2.865-3.712 5.007-8.199 6.02-12.61l.447-.163c.16-.269.371-.484.588-.601a9.032 9.032 0 011.83-.415c.779-.102 2.168-.102 2.561-1.794.069-.298.068-.576-.004-.791-.279-.836-1.458-.165-2.17.228a9.287 9.287 0 01-1.88.714.59.59 0 01-.454-.283l-.425.095c.454-4.24-.324-7.828-2.181-10.086l.371-.628c-.016-.25.056-.549.195-.828a23.46 23.46 0 011.559-2.22c.733-.926 2.097-2.52 1.439-3.414a.542.542 0 00-.549-.212c-.821.132-1.557 1.65-2.018 2.577a24.46 24.46 0 01-1.374 2.354 1.737 1.737 0 01-.636.45l-.398.572c-2.299-1.566-5.396-1.573-8.715-.013 0-.189-.02-.461-.024-.549-.178-.045-.303-.198-.344-.43-.021-.751.019-1.54.12-2.354.144-1.158.416-3.1-.9-2.467zm-1.314 10.542l-.314 6.796-.024.013c-.016.418-.217.882-.523 1.257-.307.375-.67.527-.945.444l-4.511-1.234c1.436-2.527 3.237-4.748 5.201-6.416.369-.307.741-.594 1.114-.86h.002zm2.626-1.52c2.371-1.017 4.576-1.013 6.283.009l-4.468 6.405c-.276.424-.653.696-.973.7-.32.002-.524-.265-.53-.687l-.312-6.426zm-10.579 12.233l4.125 2.04v.028c.256.121.369.475.293.918a2.22 2.22 0 01-.657 1.203v.019l-5.294 4.894c-.261-2.715.278-5.92 1.534-9.105l-.001.003zm18.505-10.708c1.253 1.726 1.807 4.283 1.578 7.28l-5.302 1.23v-.025c-.33.084-.583-.086-.657-.444-.074-.356.036-.835.293-1.257l4.094-6.775-.006-.009zM327.345 72.15l1.688-.976 1.031.978-.374 2.187-1.517 1.754-1.52.003-.357-1.762 1.049-2.184zm5.406 2.245c.071-.05.158-.101.213-.123l5.458-2.05c-.787 3.182-2.341 6.41-4.369 9.142l-2.11-4.922c-.2-.452.021-1.236.494-1.75.098-.107.201-.196.308-.265l.006-.032zm-9.169 5.333c.31-.173.594-.146.762.067.169.212.195.587.074.998v.026l-2.096 7.307c-2.008-.386-3.532-1.805-4.342-4.034l5.411-4.235c.06-.042.121-.077.183-.105l.008-.024zm4.574.005c.35-.216.678-.18.845.095l.02-.012 2.667 4.245-1.065.995c-1.962 1.675-4.011 2.733-5.918 3.056l2.677-7.337c.162-.435.462-.817.787-1.014l-.013-.028z" fill="#fff"></path><path d="M604.575 387.09l-85.712-49.507-85.771 49.507" stroke="url(#paint12_linear)" stroke-linecap="round" stroke-linejoin="round"></path><path d="M473.451 378.595l45.275 26.132v-67.145l-45.275-26.132v67.145z" fill="url(#paint13_linear)"></path><path d="M563.997 378.595l-45.244 26.132v-67.145l45.244-26.132v67.145z" fill="url(#paint14_linear)"></path><path d="M518.88 337.588v99.032l85.743-49.522v-99.032l-85.743 49.522zm-85.788 49.51l85.754 49.533v-99.032l-85.754-49.533v99.032z" stroke="#1BE99A" stroke-width="3" stroke-linecap="round" stroke-linejoin="round"></path><path d="M433.092 288.049l85.754 49.533 85.777-49.51-85.743-49.533-85.788 49.51z" stroke="#1BE99A" stroke-width="3" stroke-linecap="round" stroke-linejoin="round"></path><path fill-rule="evenodd" clip-rule="evenodd" d="M506.364 262.009l10.192-.207 45.275 26.031-.337 5.851-30.171 17.345-10.166.195-45.276-26.031.338-5.851 30.145-17.333zm7.657 4.945l-3.926.052-25.205 14.485-.091 2.265 38.919 22.368 3.861-.091 25.205-14.485.156-2.226-38.919-22.368z" fill="#1BE99A"></path><path d="M520.39 293.529c2.548 1.463 7.735.867 11.569-1.333 3.835-2.201 4.875-5.178 2.314-6.654-2.548-1.462-7.734-.867-11.569 1.334-3.822 2.213-4.862 5.19-2.314 6.653zm-13.742-7.894c2.548 1.463 7.735.867 11.569-1.333 3.835-2.201 4.875-5.178 2.314-6.654-2.561-1.475-7.734-.867-11.569 1.334-3.835 2.2-4.875 5.177-2.314 6.653z" fill="#1BE99A"></path><g clip-path="url(#clip0)"><path d="M47.237 112.201c-.544-.32-.991-.058-.998.584 0 .068.003.138.012.21l4.184 32.55c.107.823.66 1.699 1.31 2.077l20.069 11.467c.488.286.907.107.985-.42l4.184-28.109c.087-.588-.278-1.398-.815-1.808a1.326 1.326 0 00-.17-.112l-28.761-16.439zm17.615 31.862l-6.406-3.66-1.734-11.752 9.692 5.537-1.552 9.875z" fill="#fff"></path><path d="M75.626 139.443l-9.241-5.28-1.551 9.866-6.4-3.657-7.557 6.335c.24.383.544.695.861.879l20.058 11.46c.487.286.906.108.984-.419l2.846-19.184z" fill="url(#paint15_linear)"></path></g><path d="M304.568 322.273l-35.882-20.648v42.916l35.882 20.648v-42.916z" fill="#061431"></path><path d="M286.613 349.494c-4.229-2.258-8.206-6.223-11.198-11.161-2.989-4.938-4.636-10.26-4.636-14.985 0-4.728 1.647-8.289 4.639-10.035 2.989-1.743 6.966-1.462 11.195.799 3.549 1.894 6.826 4.822 9.621 8.739.443.622.523 1.377.18 1.687-.343.312-.983.061-1.426-.561-2.435-3.412-5.283-5.946-8.375-7.597-3.686-1.969-7.154-2.217-9.761-.697-2.605 1.523-4.041 4.629-4.041 8.747 0 4.119 1.436 8.76 4.043 13.063 2.608 4.306 6.073 7.759 9.762 9.73 3.072 1.641 5.978 2.092 8.408 1.301.446-.146 1.083.289 1.426.967.343.679.257 1.347-.186 1.493-2.792.906-6.125.391-9.651-1.49zm7.628-13.677c0 .78-.567 1.113-1.267.739-.701-.373-1.268-1.31-1.268-2.091 0-.781.567-1.114 1.268-.74.7.374 1.267 1.311 1.267 2.092zm4.124-.479c0 .781-.567 1.113-1.268.74-.7-.374-1.267-1.311-1.267-2.092 0-.78.567-1.113 1.267-.739.701.373 1.268 1.31 1.268 2.091zm0 5.616c0 .781-.567 1.114-1.268.74-.7-.374-1.267-1.311-1.267-2.091 0-.781.567-1.114 1.267-.74.701.374 1.268 1.308 1.268 2.091zm4.293-3.322c0 .78-.568 1.113-1.268.739-.7-.373-1.267-1.31-1.267-2.091 0-.781.567-1.114 1.267-.74.7.374 1.268 1.308 1.268 2.092zm-2.093-6.518c0 .781-.567 1.114-1.267.74-.7-.374-1.268-1.311-1.268-2.091 0-.781.568-1.114 1.268-.74.7.373 1.267 1.31 1.267 2.091zm0 16.265c0 .781-.567 1.114-1.267.74-.7-.373-1.268-1.31-1.268-2.091 0-.783.568-1.114 1.268-.74.7.371 1.267 1.308 1.267 2.091zm2.093-4.134c0 .781-.568 1.114-1.268.74-.7-.374-1.267-1.311-1.267-2.091 0-.781.567-1.114 1.267-.74.7.374 1.268 1.311 1.268 2.091z" fill="#fff"></path><path d="M286.567 335.438c1.835.981 3.324.113 3.324-1.937 0-2.051-1.489-4.508-3.324-5.489-1.835-.98-3.324-.112-3.324 1.938 0 2.051 1.489 4.508 3.324 5.488z" fill="#fff"></path><path fill-rule="evenodd" clip-rule="evenodd" d="M53.177 411.935c-7.93 4.331-14.353 15.312-14.353 24.541 0 7.39 4.108 11.389 9.815 10.488.718-.246.986-.893.986-1.332 0-.397-.017-1.703-.017-3.102-3.605 2.741-4.538 1.455-4.826.673-.162-.393-.86-1.491-1.47-1.556-.503-.038-1.221-.419-.017-1.096 1.129-.639 1.937.153 2.207.508 1.291 1.82 3.354-.016 4.18-.905.127-1.155.504-2.09.915-2.733-3.194 1.326-6.531 1.707-6.531-4.68 0-1.816.556-3.624 1.47-5.293-.142-.338-.645-1.777.143-4.504 0 0 1.202-1.095 3.946-.444a20.31 20.31 0 013.589-2.523c1.22-.667 2.44-1.145 3.588-1.397 2.744-3.67 3.946-3.868 3.946-3.868.788 1.867.288 3.852.143 4.348.914.669 1.47 1.848 1.47 3.686 0 6.409-3.354 9.662-6.548 11.823.52.238.97.996.97 2.562 0 2.233-.017 4.039-.017 4.603 0 .439.268.814.986.254 5.67-5.309 9.779-13.816 9.779-21.187 0-9.229-6.425-13.197-14.354-8.866zM99.166 27.076c-7.311-4.221-13.232-.354-13.232 8.641 0 7.206 3.789 15.477 9.049 20.672.66.525.91.178.91-.25 0-.386-.018-1.679-.018-3.041-3.324-1.167-4.186-3.414-4.45-4.483-.148-.553-.795-2.37-1.355-3.082-.463-.574-1.124-1.708-.018-1.089 1.04.58 1.788 2.212 2.034 2.843 1.192 3.15 3.093 3.558 3.855 3.568.115-.99.462-1.503.844-1.69-2.944-2.106-6.021-5.287-6.021-11.514 0-1.77.513-2.94 1.357-3.593-.133-.483-.596-2.418.133-4.239 0 0 1.11.214 3.639 3.769 1.058.244 2.182.711 3.308 1.36a18.71 18.71 0 013.309 2.459c2.532-.656 3.638.432 3.638.432.727 2.66.264 4.06.134 4.39.845 1.627 1.357 3.369 1.357 5.16 0 6.247-3.092 5.844-6.036 4.552.48.787.892 2.001.892 3.527 0 2.178-.017 3.92-.017 4.468 0 .428.249 1.079.91 1.3 5.227.86 9.016-3.057 9.016-10.243-.002-8.993-5.926-19.696-13.238-23.917z" fill="#fff"></path><path d="M176.543 167.953c-2.058.981-1.612 4.252-1.432 5.552.157 1.125.212 2.321.167 3.571a4.327 4.327 0 01-.555 1.363l-.038.877a35.303 35.303 0 00-3.059 2.319c-4.238 3.568-8.094 8.402-11.074 13.882l-.611-.166c-.336.313-.696.475-1.005.456a7.671 7.671 0 01-2.281-1.148c-.913-.671-2.679-2.01-4.014.72-1.299 2.657 1.018 2.942 2.171 3.047a7.47 7.47 0 012.538.666c.201.228.319.562.339.971l.555.287c-2.993 7.069-4.221 14.26-3.453 20.187l-.712.652a5.774 5.774 0 01-.727 1.29c-.992.886-2.01 1.67-3.037 2.338-1.363.89-3.865 2.344-3.582 4.618.049.403.214.707.469.871.984.637 2.682-1.247 3.752-2.372.954-1 1.942-1.918 2.956-2.725.351-.177.686-.228.971-.147l.763-.59c1.652 5.166 5.127 8.355 9.766 8.96l-.311.952c.141.272.195.636.152 1.052a38.292 38.292 0 01-1.533 4.19c-.776 1.793-2.28 5.02-.501 5.223.311.036.671-.079 1.027-.33 1.384-.967 1.826-3.405 2.105-4.883.45-1.582.694-3.144 1.309-4.375.202-.341.455-.635.727-.841l.381-1.046c5.029-.579 10.592-3.753 15.631-8.917l.339.579c.345-.138.656-.087.864.126.478.811.863 1.727 1.159 2.73.393 1.333.986 3.845 2.9 1.886.337-.345.626-.785.824-1.258.773-1.853-.391-2.96-1.092-3.654-.585-.671-1.088-1.454-1.526-2.329-.081-.369-.019-.841.174-1.312a4.2 4.2 0 01-.283-.653c4.628-5.943 8.088-13.127 9.723-20.187l.722-.262c.26-.43.601-.775.95-.963 1.01-.349 2-.541 2.956-.664 1.258-.164 3.502-.164 4.137-2.872.111-.477.109-.922-.006-1.267-.451-1.337-2.356-.264-3.505.366a15.088 15.088 0 01-3.038 1.143.957.957 0 01-.733-.453l-.686.151c.734-6.786-.523-12.53-3.524-16.146l.601-1.005c-.026-.4.09-.879.315-1.326a37.662 37.662 0 012.518-3.554c1.184-1.482 3.387-4.035 2.324-5.466-.206-.276-.519-.396-.887-.338-1.325.211-2.515 2.64-3.259 4.124a39.156 39.156 0 01-2.22 3.769c-.326.345-.682.594-1.027.722l-.643.915c-3.713-2.508-8.716-2.519-14.077-.021 0-.302-.032-.739-.038-.879-.288-.073-.489-.318-.555-.688-.035-1.203.03-2.466.192-3.769.234-1.854.674-4.963-1.453-3.949zm-2.122 16.876l-.508 10.88-.039.021c-.025.669-.349 1.412-.844 2.012-.495.601-1.083.843-1.526.711l-7.286-1.976c2.319-4.045 5.228-7.601 8.4-10.271a29.782 29.782 0 011.799-1.377h.004zm4.242-2.432c3.828-1.629 7.391-1.622 10.148.013l-7.218 10.254c-.446.679-1.054 1.114-1.571 1.12-.516.004-.847-.424-.855-1.099l-.504-10.288zm-17.088 19.582l6.662 3.267v.044c.414.194.596.76.474 1.469a3.533 3.533 0 01-1.061 1.927v.03l-8.551 7.836c-.422-4.348.448-9.477 2.478-14.577l-.002.004zm29.889-17.142c2.024 2.764 2.92 6.856 2.549 11.655l-8.563 1.97v-.041c-.534.135-.941-.138-1.062-.711-.12-.57.058-1.337.474-2.012l6.613-10.846-.011-.015zm-16.286 16.981l2.726-1.563 1.666 1.567-.605 3.5-2.45 2.809-2.454.004-.577-2.821 1.694-3.496zm8.732 3.594c.114-.081.256-.162.343-.196l8.817-3.284c-1.271 5.096-3.781 10.263-7.057 14.637l-3.408-7.881c-.324-.723.034-1.978.797-2.802.159-.17.326-.313.498-.423l.01-.051zm-14.809 8.538c.499-.277.958-.234 1.23.106.272.341.315.941.12 1.599v.041l-3.387 11.698c-3.243-.618-5.703-2.89-7.013-6.458l8.741-6.78a1.76 1.76 0 01.296-.168l.013-.038zm7.386.008c.566-.347 1.096-.287 1.366.151l.032-.019 4.309 6.797-1.722 1.592c-3.168 2.681-6.478 4.376-9.558 4.893l4.324-11.747c.261-.696.746-1.307 1.271-1.622l-.022-.045z" fill="#fff"></path><g clip-path="url(#clip1)"><path d="M365.393 298.65c-.168-.344-.412-.51-.703-.549 1.161-2.675 1.828-5.548 1.828-8.357 0-4.171-1.469-7.419-3.846-9.294a7.71 7.71 0 00-.345-.257c-.079-1.558-.353-2.952-.861-3.926-.446-.853-1.691-1.803-2.471-2.184-1.838-.899-5.237.16-7.452 1.88-.617.48-1.215.925-1.757 1.48-1.451 1.485-2.991 2.685-3.422 4.771-.92.798-1.283 2.143-1.327 3.632-.332.434-.65.881-.954 1.341-2.375 3.597-3.845 7.91-3.845 12.081 0 4.171 1.47 7.42 3.846 9.294.25.198.511.379.781.546.02.315.038.631.057.951.038.652-.025 1.38.129 1.692.158.323.745.232 1.169.3 1.225.194 2.524.696 4.131-.079.383 1.311.745 2.724 1.205 3.826 1.647.07 4.247-.977 5.96-1.829.521-.26 1.07-.748 1.192-1.3-.036-.3-.077-.595-.059-.972.535-.319 1.264-.686 1.382-1.396.165-.995-.525-2.086-.295-3.196.31-.226.641-.434.592-.967.523-.495 1.142-.788 1.804-1a.948.948 0 00.315.352c.927-.125 1.825-.434 2.593-.995.871-.636 1.287-2.792 1.087-3.673-.142-.625-.462-1.616-.734-2.172z" fill="#fff"></path><path d="M344.65 307.732c-2.236-1.765-3.62-4.82-3.62-8.753 0-3.934 1.384-7.991 3.62-11.377.236-.357.481-.707.735-1.047l-.071-1.067a23.669 23.669 0 00-1.23 1.697c-2.376 3.597-3.846 7.91-3.846 12.081 0 4.171 1.47 7.42 3.846 9.294.349.275.718.521 1.104.736l-.088-1.235a7.618 7.618 0 01-.45-.329zm18.022-27.282a8.323 8.323 0 00-.638-.456l.026 1.247.046.037c2.236 1.765 3.62 4.82 3.62 8.754 0 3.111-.866 6.3-2.335 9.173l1.079-.613c1.296-2.813 2.046-5.866 2.046-8.847.002-4.172-1.468-7.42-3.844-9.295zm-8.54-.256c-1.323.133-1.981 1.342-2.382 2.493-.358.032-.216-.568-.125-.88.237-.819 1.191-2.141 1.971-2.292.336-.064.79.117.536.679zm6.447-.64l.063-.021c.299.591.558 1.238.935 1.719-.253.754-1.913 1.942-1.888.743.359-.306.979-.39 1.298-.732-.184-.501-.45-.89-.408-1.709zm-5.77 2.109c.284.483.376 1.064.78 1.361.182.133.535.248.359.865-.04.146-.34.546-.513.665-.63.439-2.099.805-1.602-.26.522-.162 1.222-.062 1.612-.629-.299-.431-.832-1.303-.636-2.002zm5.534 3.945c-.95 1.031-2.008 2.161-3.564 2.552-.332-.205-.459-.883-.136-1.478.168.264.062.9.531.821.882-.15 1.91-1.3 2.544-1.803.394-.889-.033-1.009-.388-1.361-.726-.723-1.7-1.591-1.665-3.079.294-.346.318.25.361.345.379.861 1.333 1.793 2.029 2.396.171.148.453.248.484.376.091.373-.234.976-.196 1.231zm-12.516 3.814c-.297-.084-.368-.9-.717-.798-.499.147-.408 1.241-.406 1.899-.344-.227-.404-1.287-.152-1.933-.288-.055-.417.326-.576.502.205-1.751 2.18-1.568 1.851.33zm13.12-3.334c-.441 1.107-1.067 2.376-2.363 2.876-.027-.296-.047-.754.001-.956.991-.465 1.603-1.255 2.362-1.92zm-6.212 2.865c.827.19 2.347-.308 3.471-.752.06.255.059.598.061.936-1.445.604-3.153.821-3.532-.184zm-.157.971c.572 1.409 2.537.51 4.195-.135-.074.236-.232.542-.428.702-.531.436-1.996 1.152-2.734.978-.467-.11-.768-.634-1.024-.912-.124-.134-.74-.368-.009-.633zm9.309 10.198c-.752.442-1.279 1.455-2.012 1.667.402-.785 1.108-1.31 2.012-1.667zm.331 1.203c-.612.295-1.332.667-1.952.834.294-.611 1.426-.848 1.952-.834zm.212 1.065c-.688.266-1.543.561-2.198.736.387-.608 1.752-.809 2.198-.736z" fill="#061431"></path><path d="M358.156 307.926c-.032.875.075 2.221.111 3.114.51-.184.729-.39 1.109-.673.043-1.081-.299-1.943-.398-2.88-.202.012-.571.367-.822.439zm-7.939-2.033c.336 3.358.822 6.106 1.716 8.864 1.983-.041 4.372-.848 6.125-2.094-.322-1.623-.182-3.791-.369-5.579-.142-1.343-.07-2.774-.264-4.126-2.124.272-5.125 1.741-7.208 2.935zm7.709-3.095c-.018 1.501.06 2.947.161 4.407.51-.271.856-.454 1.329-.743-.154-1.384-.135-3.013-.448-4.173-.362.135-.681.242-1.042.509zm2.586-1.178c-.241.025-.523.187-.754.276.109 1.179.372 2.428.465 3.673.364-.119.557-.383.857-.556.015-1.128-.088-2.638-.568-3.393zm3.915 2.608c.759-.482 1.235-1.7 1.023-2.697-.142-.669-.395-1.936-.666-2.3-.201-.268-.744-.518-1.178-.048-.706.765-1.95 1.363-2.464 2.165.258.874.338 2.173.445 3.36.882-.257 1.966-.985 2.7-.896-.512.373-1.177.615-1.618 1.047.361.066 1.207-.28 1.758-.631zm-7.049-2.635c-.532-1.217-1.016-2.503-1.811-3.351-.77.861-1.618 1.716-1.835 2.85 1.103.303 2.388.53 3.646.501zm1.313-4.841c-.051 1.428-.193 3.329-.527 4.555.796-1.43 1.438-2.992 2.109-4.529-.286-.413-.884-.647-1.582-.026zm-1.489-.056c-.301.073-.557.592-.95.55-.09.144-.171.295-.263.438.867.861 1.26 2.386 1.929 3.525.359-1.457.318-2.896.397-4.372-.493.213-.766-.225-1.113-.141zm-.956-1.075c-.032.414.051.516.123.951 1.175-.013.97-2.168-.123-.951zm-1.304-.009a5.343 5.343 0 00-1.921-.095c-.811.119-.735 1.511-.701 2.346.028.661.337 1.258.472 1.655.063.185.078.4.236.385.279-.029 1.2-.777 1.463-1.033.555-.542.986-1.24 1.457-1.774l.018-.537c-.283-.055-.611-.05-1.027.08.282-.262.698-.41.955-.693l.007-.214c-.47.129-.649-.042-.959-.12zm-4.837.764c-.42.632 1.179.707 1.688.558-.003-.303.154-.646.123-.853-.605.1-1.4.467-1.811.295zm5.178-1.652c-.002.048-.057.051-.065.092.54.28.942.233 1.678-.075.332-.391.627-.815.972-1.194-.795.368-1.797 1.287-2.585 1.177zm4.753-.099c-.023-.526-.147-1.578-.441-1.664-.615-.182-1.708 1.435-2.171 1.789.05.145.133.244.139.451.275-.175.608-.244.845-.199-.274.134-.578.243-.76.455-.066.241.016.506-.027.823.651-.029 1.396-.189 2.219-.46.16-.293.215-.76.196-1.195zm-10.639 2.471c-.131-.058-1.024-1.042-1.147-.944-1.615 1.303-3.126 3.092-4.476 4.754 1.287 2.643 1.807 6.264 1.898 9.902 1.475.242 2.77.892 4.771.283-.232-1.76-.444-3.329-.575-5.017-.503-.057-1.223.454-1.694.54-.004-.637.719-.54.779-.991.045-.341-.398-.205-.254-.769.368.018.561.28.954.263.358-1.013-.005-2.443.046-3.2.01-.142.062-.789.337-.779.244.009-.014 1.678.013 2.367.025.634-.069 1.291.163 1.61a64.288 64.288 0 015.99-2.723c-.46-.056-1.007-.068-1.607-.231-.325-.089-1.349-.146-1.443-.46-.15-.5.392-.991.485-1.499-.976.953-1.166-.152-1.397-.9-.209-.677-.329-1.196-.38-1.612-.84-.146-1.739-.277-2.463-.594zm9.785-4.747c1.346-1.223 1.589 2.17 1.061 3.484.082.304.362.331.477.59-.751 1.787-1.586 3.504-2.352 5.279.57-.607 1.384-.574 2.056-1.115.245-.199.422-.895.608-1.468.511-1.576 1.047-3.525 1.286-4.939.054-.321.2-1.034.168-1.291-.059-.461-.64-.608-.936-.799-.544-.353-.887-.713-1.455-1.022-.23.466-.725.901-.913 1.281zm-12.863-8.777c-.642 1.027-.508 2.467-.43 3.498 1.16-1.242 2.699-.914 2.684.489.554-.217.207-.854.107-1.308-.327-1.485.551-3.545.04-4.825-.994.445-1.809 1.197-2.401 2.146zm4.589-6.276c-1.452.99-3.313 2.852-3.909 4.537.462-.243.783-.621 1.238-.819.173-.075.398-.063.596-.19.395-.253.728-1.37 1.026-1.848.29-.468.639-.748.877-1.165.153-.139.38-.215.389-.477-.067-.056-.137-.092-.217-.038zm7.56-2.304c-1.507-.41-4.058-.206-5.662 1.275-1.294 1.195-3.042 3.03-3.639 4.769.557 1.268-.165 2.876-.211 4.384-.024.803.332 1.366.36 2.22-.191.424-.774.678-1.176.8-.136-.715-.374-1.488-1.073-1.321-.989.237-1.713 1.421-1.758 2.4-.053 1.152.773 2.731 1.944 2.176.452-.214.564-.765 1.056-.938.267.503-.412.938-.482 1.392-.018.117.057.523.1.711.213.912.687 2.02 1.153 2.605.592.74 1.756.463 3.008.102.223-.623 1.047-.877 1.584-.929-.644-.054-1.241-.532-1.737-.968-.57-.5-1.146-1.048-1.175-1.96 1.076 1.289 1.965 2.435 3.92 2.465 1.481.023 3.209-1.419 4.346-2.73.472-.545.753-1.24 1.089-1.905 1.255-2.487 1.841-5.6 1.712-8.365-.053-1.141-.051-2.297-.396-2.952-.361-.684-1.583-.971-2.298.026-.133-.745.595-1.5 1.449-1.524-.609-.665-1.248-1.496-2.114-1.733zm2.808 25.146c1.178-1.086 3.378-2.999 4.117-1.49.272.556.592 1.547.733 2.173.199.881-.216 3.037-1.087 3.672-.768.562-1.666.87-2.592.996a.953.953 0 01-.316-.351c-.661.211-1.281.504-1.804 1 .05.532-.281.74-.591.966-.23 1.11.46 2.201.294 3.197-.117.709-.847 1.077-1.382 1.395-.018.377.023.672.059.972-.122.552-.671 1.041-1.192 1.3-1.712.852-4.313 1.899-5.96 1.829-.46-1.102-.822-2.515-1.205-3.826-1.606.776-2.906.273-4.131.079-.424-.068-1.011.023-1.169-.3-.154-.312-.091-1.04-.129-1.692-.097-1.666-.181-3.278-.58-4.875-.179-.717-.491-1.294-.709-1.968-.201-.625-.553-1.361-.646-2.023-.135-.983.727-1.353 1.279-2 .853-1.001 1.523-1.626 2.447-2.584.273-.285 1.099-1.051 1.192-1.301.186-.495-.32-.913-.456-1.199a3.503 3.503 0 01-.356-1.372c-.775.143-1.363-.163-1.717-.62-.588-.756-.995-2.401-.487-3.949.04-.121.239-.405.268-.58.058-.346-.109-.717-.119-1.059-.054-1.753.266-3.396 1.326-4.315.43-2.085 1.97-3.285 3.421-4.77.543-.555 1.14-1.001 1.758-1.48 2.216-1.722 5.615-2.781 7.453-1.882.78.381 2.025 1.331 2.471 2.184 1.177 2.252 1.094 6.759.27 10.316-.111.478-.271 1.179-.495 1.786-.157.423-.643 1.333-.584 1.636.061.313 1.108.829 1.333.991.404.292 1.172.597 1.234 1.128.067.565-.231 1.479-.381 2.103-.503 2.081-.995 4.013-1.567 5.913z" fill="#061431"></path></g><path d="M416.241 143.473c0 2.037-1.376 4.499-3.092 5.483l-8.68 5.008-4.842 9.013-4.841-3.412-8.681 5.008c-1.698.984-3.091.119-3.091-1.918v-28.517c0-2.037 1.376-4.499 3.091-5.483l27.044-15.6c1.699-.984 3.092-.119 3.092 1.918v28.5z" fill="#FC1683"></path><path fill-rule="evenodd" clip-rule="evenodd" d="M399.627 128.603c-.306.169-.595.526-.781.984l-8.715 23.136c-.17.459-.153.849 0 1.07.153.22.425.288.781.085l17.43-10.049c.339-.204.628-.577.781-.985.153-.407.17-.815 0-1.069l-8.715-13.071c-.186-.271-.475-.271-.781-.101z" fill="#fff"></path><path fill-rule="evenodd" clip-rule="evenodd" d="M399.627 142.746c-.153.084-.289.101-.391.05-.101-.05-.169-.169-.186-.356l-.272-4.091-.272-4.091a1.13 1.13 0 01.153-.611c.102-.203.255-.373.425-.475l.543-.323.544-.322c.17-.102.323-.102.424-.017.102.085.17.238.153.441l-.271 4.414-.272 4.413c-.017.187-.085.39-.187.56a1.13 1.13 0 01-.391.408z" fill="#FC1683"></path><path d="M399.035 146.514c-.355-.19-.379-.84-.052-1.452s.88-.954 1.236-.765c.356.19.38.84.053 1.452s-.881.955-1.237.765z" fill="#FC1683"></path><circle cx="399.629" cy="173.303" r="4.086" fill="#FC1683"></circle><path d="M470.232 149.883l33.832-19.649v44.487l-33.832 19.649v-44.487zm-2.81-82.019l33.832-19.65v39.694l-33.832 19.649V67.864zM251.12 422.466l40.048-23.028v34.421l-40.048 23.029v-34.422z" fill="#061431"></path><path d="M503.492 162.593c.692 1.044.761 2.529.182 4.065-.573 1.539-1.699 2.881-3.086 3.686l-2.613 1.517c.031-.606.05-1.206.05-1.802 0-.667-.027-1.307-.064-1.945l1.721-1.001c.422-.248.763-.856.763-1.366 0-.16-.032-.29-.092-.385l-10.955-16.55c-.133-.202-.378-.247-.664-.082-.274.159-.52.478-.655.824l-1.739 4.647c5.285 1.725 8.839 7.087 9.328 15.239a31.55 31.55 0 01.013 3.747l-8.535 4.956c.045-.609.074-1.217.074-1.815 0-.672-.031-1.313-.092-1.929-.42-4.398-2.31-7.414-5.089-8.703l-1.2 3.202c2.101 1.135 3.536 3.505 3.927 6.874.071.609.108 1.244.108 1.922 0 .597-.032 1.211-.09 1.822l-7.908 4.592c-1.385.805-2.511.768-3.087-.104-.576-.868-.51-2.428.183-4.278l1.622-4.291c.93.061 1.768.359 2.484.874l-.97 2.546a1.515 1.515 0 00-.092.494c0 .51.343.723.763.478l3.837-2.224c-.32-2.025-1.171-3.529-2.386-4.405a4.723 4.723 0 00-2.484-.875l4.286-11.447a9.245 9.245 0 012.582.609c3.691 1.461 6.188 5.335 6.64 11.101l2.296-1.333c-.468-6.774-3.409-11.278-7.779-12.856a10.368 10.368 0 00-2.595-.577l3.657-9.768c.69-1.852 1.752-3.297 2.904-3.964 1.152-.67 2.209-.454 2.904.595l11.851 17.91zm-5.63-91.835a8.575 8.575 0 01-1.855.808c-.601.175-1.071.259-1.384.222-.192-.019-.324-.087-.372-.189a.87.87 0 01-.073-.361v-.732c0-.304.098-.501.278-.605a.659.659 0 01.216-.082c.072-.013.181-.017.299-.027.41-.02.855-.105 1.322-.258.481-.16.95-.372 1.433-.65.758-.435 1.347-.931 1.757-1.483.411-.552.627-1.137.627-1.727 0-.403-.109-.67-.324-.82-.216-.15-.626-.16-1.215-.05l-1.746.356c-.88.174-1.528.06-1.925-.36-.397-.404-.602-.992-.602-1.74 0-.604.109-1.197.324-1.783a7.556 7.556 0 01.867-1.678 8.277 8.277 0 012.769-2.584c.265-.152.542-.3.807-.406.277-.118.529-.204.782-.292.241-.067.47-.125.686-.165a1.77 1.77 0 01.505-.031c.167.02.288.062.361.15.073.074.108.212.108.412v.677c0 .303-.097.517-.277.62-.098.057-.254.089-.456.089-.685.02-1.458.276-2.311.766-.685.394-1.227.834-1.6 1.323-.372.488-.567 1.015-.567 1.606 0 .403.121.678.361.814.24.136.685.152 1.322.03l1.71-.336c.866-.166 1.492-.068 1.865.308.372.376.553.946.553 1.694 0 .62-.108 1.242-.313 1.848a7.934 7.934 0 01-.877 1.768 8.544 8.544 0 01-1.336 1.574 8.856 8.856 0 01-1.719 1.294zm-15.464 8.502c-.216.124-.361.166-.456.117-.097-.031-.181-.183-.254-.415l-2.828-9.486c-.073-.245-.108-.412-.108-.511a.57.57 0 01.288-.524l1.179-.678c.23-.132.386-.18.47-.125.097.031.167.191.24.423l2.021 8.357 1.878-10.598c.059-.32.132-.55.23-.693a1.47 1.47 0 01.48-.421l.964-.554c.229-.132.386-.18.48-.131.098.03.181.183.23.43l1.902 8.537 2.081-10.827c.073-.33.157-.564.241-.7a1.42 1.42 0 01.469-.415l1.12-.644c.192-.11.3-.056.3.186 0 .07-.011.151-.025.243-.011.093-.035.22-.084.406l-2.901 12.782c-.072.329-.156.563-.253.706a1.41 1.41 0 01-.456.408l-1.034.595c-.229.132-.386.18-.481.13-.097-.044-.181-.182-.229-.441l-1.864-8.205-1.855 10.327c-.059.32-.132.55-.229.705-.098.156-.265.297-.481.422l-1.035.594zm-9.661 4c.396-.229.807-.551 1.238-.97.434-.425.818-.96 1.145-1.577a4.45 4.45 0 00.41-1.155c.073-.387.121-.83.121-1.32v-.604a9.69 9.69 0 00-1.106.391c-.386.164-.758.349-1.131.563-.808.464-1.395.989-1.792 1.603a3.582 3.582 0 00-.589 1.992c0 .677.146 1.097.445 1.27.284.195.705.125 1.259-.193zm4.884-4.991c0 .532.049.936.132 1.204.098.26.216.537.386.813a.478.478 0 01.084.284c0 .145-.073.329-.23.563l-.758 1.04a1.08 1.08 0 01-.313.308.362.362 0 01-.361.009 2.015 2.015 0 01-.435-.428 5.992 5.992 0 01-.372-.634c-.94 1.862-2.119 3.201-3.539 4.017-1.012.582-1.816.7-2.408.349-.588-.352-.89-1.097-.89-2.248 0-1.222.361-2.422 1.095-3.593a8.27 8.27 0 012.948-2.816c.41-.235.83-.436 1.276-.618.445-.184.902-.33 1.384-.48v-1.05c0-1.094-.192-1.745-.567-1.974-.385-.223-1.033-.067-1.962.467a8.42 8.42 0 00-1.301.935c-.445.385-.877.79-1.301 1.237-.192.21-.338.352-.421.43-.079.07-.138.121-.187.148-.167.096-.254.001-.254-.299v-.706c0-.229.025-.416.084-.55.059-.135.167-.297.338-.498.421-.5.925-1.006 1.516-1.52a11.154 11.154 0 011.879-1.354c1.433-.823 2.48-1.039 3.152-.647.661.397.998 1.38.998 2.963v4.66l.025-.014v.002h.002zm22.511-1.832c-3.959 5.77-9.713 10.932-14.657 13.774-6.93 3.984-13.178 4.512-17.893 2.135-.373-.19-.036-.928.41-.868 5.1.605 11.395-.872 17.904-4.613 4.393-2.526 9.219-6.393 13.658-11.185.661-.742 1.225-.189.578.757z" fill="#fff"></path><path d="M501.789 73.25c-.505-.488-3.347 1.549-4.634 2.476-.386.28-.445-.088-.097-.592 2.261-3.199 5.98-4.789 6.415-4.407.434.399-.121 5.158-2.238 8.503-.324.518-.637.523-.494.01.481-1.699 1.552-5.52 1.048-5.99zM289.112 407.913l-.002.004-3.567-11.081-11.544 6.676.003.004 3.567 11.075 11.539-6.673-9.337 13.52 3.567 11.081-9.339-2.722-9.339 13.521-.001.002 3.567-15.207-9.333-2.72 11.539-6.674 3.567-15.205v-.002l-11.543 6.676-3.567 15.205c-2.181 9.3.351 16.35 5.77 17.929l9.339 2.725 9.34-13.528c5.715-8.271 7.85-18.182 5.774-24.606z" fill="#fff"></path><defs><linearGradient id="paint0_linear" x1="637.368" y1="504.316" x2="742.966" y2="557.863" gradientUnits="userSpaceOnUse"><stop offset=".373" stop-color="#1347FF"></stop><stop offset="1" stop-color="#0B263F" stop-opacity="0"></stop></linearGradient><linearGradient id="paint1_linear" x1="717.045" y1="491.987" x2="803.048" y2="550.932" gradientUnits="userSpaceOnUse"><stop offset=".373" stop-color="#1347FF"></stop><stop offset="1" stop-color="#0B263F" stop-opacity="0"></stop></linearGradient><linearGradient id="paint2_linear" x1="705.67" y1="443.03" x2="860.342" y2="554.505" gradientUnits="userSpaceOnUse"><stop offset=".373" stop-color="#1347FF"></stop><stop offset="1" stop-color="#0B263F" stop-opacity="0"></stop></linearGradient><linearGradient id="paint3_linear" x1="48.975" y1="-85.519" x2="-136.795" y2="360.465" gradientUnits="userSpaceOnUse"><stop stop-color="#1347FF"></stop><stop offset="1" stop-color="#061431" stop-opacity="0"></stop></linearGradient><linearGradient id="paint4_linear" x1="428.44" y1="-173.778" x2="428.44" y2="181.467" gradientUnits="userSpaceOnUse"><stop stop-color="#061431" stop-opacity="0"></stop><stop offset=".806" stop-color="#1347FF"></stop></linearGradient><linearGradient id="paint5_linear" x1="-44.212" y1="262.854" x2="373.219" y2="312.392" gradientUnits="userSpaceOnUse"><stop stop-color="#061431" stop-opacity="0"></stop><stop offset=".368" stop-color="#1347FF"></stop></linearGradient><linearGradient id="paint6_linear" x1="151.778" y1="-250.997" x2="151.778" y2="298.461" gradientUnits="userSpaceOnUse"><stop stop-color="#061431" stop-opacity="0"></stop><stop offset=".806" stop-color="#1347FF"></stop></linearGradient><linearGradient id="paint7_linear" x1="400.654" y1="-143.944" x2="400.654" y2="210.746" gradientUnits="userSpaceOnUse"><stop stop-color="#061431" stop-opacity="0"></stop><stop offset=".806" stop-color="#1347FF"></stop></linearGradient><linearGradient id="paint8_linear" x1="379.208" y1="-163.622" x2="379.208" y2="324.203" gradientUnits="userSpaceOnUse"><stop stop-color="#061431" stop-opacity="0"></stop><stop offset=".806" stop-color="#1347FF"></stop></linearGradient><linearGradient id="paint9_linear" x1="204.359" y1="17.114" x2="204.359" y2="277.455" gradientUnits="userSpaceOnUse"><stop stop-color="#061431" stop-opacity="0"></stop><stop offset=".806" stop-color="#1347FF"></stop></linearGradient><linearGradient id="paint10_linear" x1="737.019" y1="337.615" x2="319.86" y2="386.733" gradientUnits="userSpaceOnUse"><stop stop-color="#061431" stop-opacity="0"></stop><stop offset=".665" stop-color="#1347FF"></stop></linearGradient><linearGradient id="paint11_linear" x1="50.853" y1="-136.281" x2="-78.18" y2="202.025" gradientUnits="userSpaceOnUse"><stop stop-color="#1347FF"></stop><stop offset="1" stop-color="#061431"></stop></linearGradient><linearGradient id="paint12_linear" x1="518.833" y1="348.597" x2="518.833" y2="387.09" gradientUnits="userSpaceOnUse"><stop stop-color="#061431"></stop><stop offset="1" stop-color="#1ADB93"></stop></linearGradient><linearGradient id="paint13_linear" x1="518.724" y1="311.45" x2="518.724" y2="389.847" gradientUnits="userSpaceOnUse"><stop stop-color="#1BE99A"></stop><stop offset=".82" stop-color="#0A3A44" stop-opacity=".18"></stop><stop offset="1" stop-color="#061431" stop-opacity="0"></stop></linearGradient><linearGradient id="paint14_linear" x1="518.724" y1="311.45" x2="518.724" y2="389.847" gradientUnits="userSpaceOnUse"><stop stop-color="#1BE99A"></stop><stop offset=".82" stop-color="#0A3A44" stop-opacity=".18"></stop><stop offset="1" stop-color="#061431" stop-opacity="0"></stop></linearGradient><linearGradient id="paint15_linear" x1="77.192" y1="143.087" x2="64.09" y2="151.816" gradientUnits="userSpaceOnUse"><stop stop-color="#051332"></stop><stop offset=".878" stop-color="#fff"></stop></linearGradient><clipPath id="clip0"><path fill="#fff" transform="translate(46.238 112.064)" d="M0 0h30.757v47.16H0z"></path></clipPath><clipPath id="clip1"><path fill="#fff" transform="translate(340.238 273.754)" d="M0 0h26.279v42.047H0z"></path></clipPath></defs></svg> 